# xmcd
# 
# Track frame offsets:
#     150
#     17672
#     33751
#     51436
#     64796
#     84561
#     100106
#     117793
#     134852
#     154450
#     172129
#     188946
#     208027
# 
# Disc length: 3047
# 
# Revision: 6
# Processed by: cddbd v1.5.2PL0 Copyright (c) Steve Scherf et al.
# Submitted via: fre:ac v1.0.17
# 
DISCID=bb0be50d
DTITLE=Backstreet Boys - Millennium +1
DYEAR=1999
DGENRE=Pop
TTITLE0=Larger Than Life
TTITLE1=I Want It That Way
TTITLE2=Show Me The Meaning Of Being Lonely
TTITLE3=It's Gotta Be You 
TTITLE4=I Need You Tonight
TTITLE5=Don't Want You Back
TTITLE6=Don't  Wanna Lose You Now 
TTITLE7=The One
TTITLE8=Back To Your Heart
TTITLE9=Spanish Eyes
TTITLE10=No One Else Comes Close
TTITLE11=The Perfect Fan
TTITLE12=I'll Be There For You
EXTD=YEAR: 1999
EXTT0=
EXTT1=
EXTT2=
EXTT3=
EXTT4=
EXTT5=
EXTT6=
EXTT7=
EXTT8=
EXTT9=
EXTT10=
EXTT11=
EXTT12=
PLAYORDER=
